<?xml version="1.0" encoding="UTF-8" standalone="no"?>
<!-- Created with sK1/UniConvertor (http://sk1project.org/) -->

<svg
   xmlns:dc="http://purl.org/dc/elements/1.1/"
   xmlns:cc="http://creativecommons.org/ns#"
   xmlns:rdf="http://www.w3.org/1999/02/22-rdf-syntax-ns#"
   xmlns:svg="http://www.w3.org/2000/svg"
   xmlns="http://www.w3.org/2000/svg"
   xmlns:xlink="http://www.w3.org/1999/xlink"
   xmlns:sodipodi="http://sodipodi.sourceforge.net/DTD/sodipodi-0.dtd"
   xmlns:inkscape="http://www.inkscape.org/namespaces/inkscape"
   width="595.276pt"
   height="841.89pt"
   viewBox="0 0 595.276 841.89"
   fill-rule="evenodd"
   id="svg3014"
   version="1.1"
   inkscape:version="0.48.3.1 r9886"
   sodipodi:docname="logo.svg"
   inkscape:export-filename="/home/mcfletch/OpenGL-dev/website/images/logo.png"
   inkscape:export-xdpi="30.287935"
   inkscape:export-ydpi="30.287935">
  <metadata
     id="metadata3084">
    <rdf:RDF>
      <cc:Work
         rdf:about="">
        <dc:format>image/svg+xml</dc:format>
        <dc:type
           rdf:resource="http://purl.org/dc/dcmitype/StillImage" />
        <dc:title></dc:title>
      </cc:Work>
    </rdf:RDF>
  </metadata>
  <sodipodi:namedview
     pagecolor="#ffffff"
     bordercolor="#666666"
     borderopacity="1"
     objecttolerance="10"
     gridtolerance="10"
     guidetolerance="10"
     inkscape:pageopacity="0"
     inkscape:pageshadow="2"
     inkscape:window-width="1920"
     inkscape:window-height="1156"
     id="namedview3082"
     showgrid="false"
     inkscape:zoom="2.4634596"
     inkscape:cx="279.35438"
     inkscape:cy="495.98179"
     inkscape:window-x="1915"
     inkscape:window-y="-10"
     inkscape:window-maximized="1"
     inkscape:current-layer="svg3014" />
  <defs
     id="defs3016">
    <linearGradient
       id="linearGradient4699">
      <stop
         style="stop-color:#aee6ac;stop-opacity:1;"
         offset="0"
         id="stop4701" />
      <stop
         id="stop4707"
         offset="0.26259947"
         style="stop-color:#cbf1ca;stop-opacity:1;" />
      <stop
         style="stop-color:#16bc16;stop-opacity:1;"
         offset="0.69330388"
         id="stop4709" />
      <stop
         style="stop-color:#007800;stop-opacity:1;"
         offset="1"
         id="stop4703" />
    </linearGradient>
    <linearGradient
       id="linearGradient3893">
      <stop
         style="stop-color:#0000ff;stop-opacity:1"
         offset="0"
         id="stop3895" />
      <stop
         id="stop4689"
         offset="0.5"
         style="stop-color:#4646ff;stop-opacity:1;" />
      <stop
         style="stop-color:#000080;stop-opacity:1"
         offset="1"
         id="stop3897" />
    </linearGradient>
    <marker
       id="ArrowEnd"
       viewBox="0 0 10 10"
       refX="0"
       refY="5"
       markerUnits="strokeWidth"
       markerWidth="4"
       markerHeight="3"
       orient="auto">
      <path
         d="M 0 0 L 10 5 L 0 10 z"
         id="path3019" />
    </marker>
    <marker
       id="ArrowStart"
       viewBox="0 0 10 10"
       refX="10"
       refY="5"
       markerUnits="strokeWidth"
       markerWidth="4"
       markerHeight="3"
       orient="auto">
      <path
         d="M 10 0 L 0 5 L 10 10 z"
         id="path3022" />
    </marker>
    <linearGradient
       inkscape:collect="always"
       xlink:href="#linearGradient3893"
       id="linearGradient4693"
       x1="250.94353"
       y1="498.40686"
       x2="326.43158"
       y2="489.6387"
       gradientUnits="userSpaceOnUse" />
    <radialGradient
       inkscape:collect="always"
       xlink:href="#linearGradient4699"
       id="radialGradient4705"
       cx="497.71786"
       cy="582.90088"
       fx="497.71786"
       fy="582.90088"
       r="63.122612"
       gradientUnits="userSpaceOnUse"
       gradientTransform="matrix(0.98070805,0.19292604,-0.19302173,0.98119448,122.67959,-85.060984)" />
  </defs>
  <g
     id="g3155">
    <path
       inkscape:connector-curvature="0"
       id="path3028"
       d="m 334.384,368.052 31.826,-11.53 59.125,2.702 -18.582,12.567 -72.369,-3.739 z"
       style="fill:#ff7878;stroke:none" />
    <path
       inkscape:connector-curvature="0"
       id="path3030"
       d="m 406.753,371.791 18.582,-12.567 -2.988,59.366 -18.874,26.329 3.28,-73.128 z"
       style="fill:#910500;stroke:none" />
    <path
       inkscape:connector-curvature="0"
       id="path3032"
       d="m 334.384,368.052 72.369,3.739 -3.28,73.128 -70.706,-5.963 1.617,-70.904 z"
       style="fill:#ff0000;stroke:none" />
  </g>
  <path
     sodipodi:type="arc"
     style="color:#000000;fill:url(#radialGradient4705);fill-opacity:1;fill-rule:evenodd;stroke:none;stroke-width:5;marker:none;visibility:visible;display:inline;overflow:visible"
     id="path4695"
     sodipodi:cx="518.57965"
     sodipodi:cy="602.38562"
     sodipodi:rx="63.122612"
     sodipodi:ry="63.122612"
     d="m 581.70226,602.38562 a 63.122612,63.122612 0 1 1 -126.24522,0 63.122612,63.122612 0 1 1 126.24522,0 z"
     transform="matrix(0.80000003,0,0,0.80000003,-22.407513,-22.732296)" />
  <path
     style="fill:url(#linearGradient4693);stroke:none;fill-opacity:1"
     d="m 372.87033,553.67035 -90.201,-150.208 -84.01,149.673 c 0.153,24.728 39.242,44.113 87.169,44.113 47.927,0 87.017,-19.385 87.042,-43.578 z"
     id="path3034"
     inkscape:connector-curvature="0" />
  <g
     id="g3080" />
  <path
     style="fill:#00ff00;stroke:#000000;stroke-width:2.00008987999999999"
     d="m 304.54,365.365 c 4.653,3.856 7.17,6.692 5.416,15.621 -1.984,10.096 -3.895,16.685 -8.4,25.695 -6.918,15.812 -21.248,29.647 -27.177,45.953 -8.939,22.348 -9.81,56.61 11.365,72.142 16.534,12.128 28.859,15.035 45.459,13.836 13.996,-1.011 32.118,-7.906 36.585,-12.163 -10.583,11.135 -12.379,13.441 -19.252,16.002 -12.096,4.507 -20.835,9.109 -35.082,6.918 -14.256,-2.194 -22.146,-4.336 -35.083,-11.859 -8.725,-5.074 -9.363,-7.543 -17.788,-18.777 -8.426,-11.234 -7.366,-51.813 -3.953,-60.777 7.633,-20.051 21.713,-34.785 34.094,-51.883 4.986,-6.886 9.554,-15.738 12.847,-23.224 2.143,-4.871 4.447,-9.882 0.969,-17.484 z"
     id="path3042"
     inkscape:connector-curvature="0" />
  <path
     style="fill:#629900;stroke:#000000;stroke-width:2.00008988"
     d="m 218.99,405.709 c 4.2,0.989 14.134,1.738 18.118,0.884 2.939,-0.63 7.44,-0.414 10.377,-1.482 7.935,-2.886 32.328,-5.51 38.792,-10.897 5.395,-4.496 13.067,-11.268 15.812,-17.789 1.213,-2.88 2.965,-7.411 3.953,-9.882 0.473,6.834 0.084,10.925 -2.171,15.225 -3.71,7.074 -10.666,11.666 -15.854,18.83 -5.187,7.164 -18.645,13.2 -25.575,15.694 -6.931,2.494 -8.723,2.954 -14.252,3.285 -5.528,0.331 -16.506,-2.407 -19.01,-3.519 -2.504,-1.113 -8.955,-4.913 -10.19,-10.349 z"
     id="path3044"
     inkscape:connector-curvature="0" />
  <path
     style="fill:#00ff00;stroke:#000000;stroke-width:0.21602700999999999"
     d="m 302.089,376.425 c -1.715,8.573 -21.9,25.456 -29.338,30.361 -7.439,4.905 -27.194,9.051 -34.615,7.397 -7.42,-1.654 -13.381,-6.281 -10.91,-5.787 2.471,0.494 7.236,1.79 10.697,1.049 3.461,-0.741 7.523,0.662 14.451,-0.668 6.928,-1.329 27.439,-9.176 33.903,-14.563 5.395,-4.496 13.067,-11.268 15.812,-17.789 z"
     id="path3046"
     inkscape:connector-curvature="0" />
  <path
     style="fill:#ff0000;stroke:#000000;stroke-width:2.00008987999999999"
     d="m 233.026,406.988 c -1.746,0.873 -3.233,4.771 -4.105,6.08 -1.746,2.619 -3.128,6.078 -4.365,8.731 -1.818,3.895 -4.485,5.473 -6.125,6.881 -1.784,1.53 -6.807,2.794 -11.545,4.073 8.554,-0.264 13.488,1.357 20.628,-7.182 -1.063,12.408 7.105,13.037 15.799,17.909 -6.785,-4.59 -12.695,-9.034 -12.06,-16.741 0.687,-8.319 6.033,-19.169 11.958,-18.874 l -10.185,-0.877 z"
     id="path3048"
     inkscape:connector-curvature="0" />
  <path
     style="fill:#629900;stroke:#000000;stroke-width:2.00008988"
     d="m 337.367,495.247 c -1.07,3.718 -5.411,5.693 -13.537,5.697 -8.126,0.005 -10.205,-4.914 -14.329,-10.87 -4.125,-5.956 -3.373,-31.731 1.425,-38.584 5.951,-8.5 13.991,-18.622 15.375,-20.711 22.185,-33.503 28.127,-62.828 14.055,-93.367 -3.473,-7.536 -9.243,-15.964 -15.043,-21.764 -4.8,-4.8 -20.107,-9.882 -27.671,-9.882 -2.471,0 -7.412,-0.494 -9.389,0 -10.607,3.978 -25.327,7.044 -33.6,15.318 -1.482,0.988 -5.929,5.435 -5.929,7.411 -1.977,0 -26.16,24.184 -26.683,24.707 -8.287,8.287 -12.431,10.533 -17.788,21.247 -2.965,5.929 -1.703,17.097 0.647,21.54 3.727,3.677 7.308,6.702 11.859,8.977 4.551,2.276 30.068,6.052 35.423,4.837 5.356,-1.215 4.941,-0.271 10.377,-2.248 5.436,-1.977 17.254,-7.954 23.718,-13.341 5.395,-4.496 13.067,-11.269 15.812,-17.789 1.212,-2.879 2.965,-6.187 3.202,-9.247 3.901,3.267 6.419,4.879 4.665,13.808 -1.984,10.096 -3.895,16.685 -8.4,25.695 -6.918,15.812 -21.248,29.647 -27.177,45.953 -8.939,22.348 -9.81,56.61 11.365,72.142 16.534,12.128 28.859,15.034 45.459,13.836 13.995,-1.011 32.118,-7.906 36.594,-12.068 12.205,-9.807 17.813,-33.198 6.928,-49.812 -10.19,-15.552 -22.492,-18.989 -36.271,-23.334 -8.397,-2.649 -18.149,-1.164 -24.901,-0.341 l 23.814,42.19 z"
     id="path3050"
     inkscape:connector-curvature="0" />
  <path
     inkscape:connector-curvature="0"
     id="path3147"
     d="m 271.94352,294.401 c 6.939,0 15.03202,6.57037 17.62379,11.09234 13.72015,22.50456 -4.33179,64.29345 -30.45308,48.11691 -7.29521,-4.51782 -11.28471,-15.57225 -11.28471,-26.59725 0,-17.962 10.832,-32.612 24.114,-32.612 z"
     style="fill:#ffff00;stroke:#000000;stroke-width:2.88035989"
     sodipodi:nodetypes="scsss" />
  <path
     style="fill:none;stroke:#000000;stroke-width:2.00008988"
     d="m 315.43,326.025 c 14.276,6.076 19.792,16.715 14.33,31.624 -5.463,14.909 -21.489,10.362 -24.474,9.244"
     id="path3052"
     inkscape:connector-curvature="0" />
  <path
     style="fill:#000000;stroke:none"
     d="m 306.462,368.899 c -0.009,0.002 -1.184,-0.609 -1.307,-0.658 0.031,-0.239 0.049,-0.48 0.056,-0.719 4.358,0.551 8.835,2.296 11.86,0.783 2.516,0 4.004,-1.074 5.869,-2.473 1.552,-0.776 2.896,-1.2 3.957,-2.673 6.132,-9.532 5.298,-15.192 3.186,-22.261 3.396,6.205 3.277,12.744 0.98,20.562 -5.051,9.84 -18.206,9.712 -23.164,8.688 -0.426,-0.469 -0.91,-0.88 -1.436,-1.225 l -0.001,-0.024 z"
     id="path3054"
     inkscape:connector-curvature="0" />
  <path
     style="fill:#ffff00;stroke:#000000;stroke-width:2.88035989"
     d="m 235.66,294.401 c 6.939,0 13.209,4.001 17.615,10.382 -3.939,6.32 -5.86,16.995 -6.054,24.343 l -23.526,22.305 0,0 c -0.784,0.653 4.61604,-4.15232 -2.35866,2.03017 -6.224,-5.907 -9.79034,-15.42317 -9.79034,-26.44817 0,-17.962 10.832,-32.612 24.114,-32.612 z"
     id="path3038"
     inkscape:connector-curvature="0"
     sodipodi:nodetypes="scccccss" />
  <path
     style="fill:#629900;stroke:none"
     d="m 251.40874,304.8236 c -3.8688,-6.26763 -12.32757,-10.38155 -17.578,-8.85005 -8.41967,-0.27433 -19.74625,11.92793 -20.39525,24.89945 2.58063,-3.82811 8.57311,-9.81408 19.29245,-10.58055 7.88663,-0.56392 12.69044,3.0808 15.04717,4.72778 1.007,-3.746 1.52263,-6.06063 3.63363,-10.19663 z"
     id="path3056"
     inkscape:connector-curvature="0"
     sodipodi:nodetypes="cccscc" />
  <path
     sodipodi:type="arc"
     style="color:#000000;fill:#077d00;fill-opacity:1;fill-rule:evenodd;stroke:none;stroke-width:5;marker:none;visibility:visible;display:inline;overflow:visible"
     id="path3149"
     sodipodi:cx="284.76523"
     sodipodi:cy="419.25662"
     sodipodi:rx="6.622447"
     sodipodi:ry="7.4171405"
     d="m 291.38768,419.25662 a 6.622447,7.4171405 0 1 1 -13.2449,0 6.622447,7.4171405 0 1 1 13.2449,0 z"
     transform="matrix(0.80000003,0,0,0.80000003,0,-3.6104905e-5)" />
  <path
     transform="matrix(0.80000003,0,0,0.80000003,0,-3.6104905e-5)"
     d="m 291.38768,419.25662 a 6.622447,7.4171405 0 1 1 -13.2449,0 6.622447,7.4171405 0 1 1 13.2449,0 z"
     sodipodi:ry="7.4171405"
     sodipodi:rx="6.622447"
     sodipodi:cy="419.25662"
     sodipodi:cx="284.76523"
     id="path3151"
     style="color:#000000;fill:#0000ff;fill-opacity:1;fill-rule:evenodd;stroke:none;stroke-width:5;marker:none;visibility:visible;display:inline;overflow:visible"
     sodipodi:type="arc" />
  <path
     sodipodi:type="arc"
     style="color:#000000;fill:#0000ff;fill-opacity:1;fill-rule:evenodd;stroke:none;stroke-width:5;marker:none;visibility:visible;display:inline;overflow:visible"
     id="path3153"
     sodipodi:cx="284.76523"
     sodipodi:cy="419.25662"
     sodipodi:rx="6.622447"
     sodipodi:ry="7.4171405"
     d="m 291.38768,419.25662 a 6.622447,7.4171405 0 1 1 -13.2449,0 6.622447,7.4171405 0 1 1 13.2449,0 z"
     transform="matrix(0.80000003,0,0,0.80000003,34.015753,-3.6104905e-5)" />
  <path
     sodipodi:nodetypes="cccscsc"
     inkscape:connector-curvature="0"
     id="path3212"
     d="m 287.62113,304.93235 c -3.8688,-6.26763 -12.32757,-10.38155 -17.578,-8.85005 -8.41967,-0.27433 -19.74625,11.92793 -20.39525,24.89945 2.58063,-3.82811 8.57311,-9.81408 19.29245,-10.58055 7.88663,-0.56392 12.69044,3.0808 15.04717,4.72778 4.11797,3.93356 7.4513,9.89154 8.84251,8.55646 1.07347,-1.03017 -1.11494,-13.89939 -5.20888,-18.75309 z"
     style="fill:#629900;stroke:none" />
</svg>
